{"accessors" : [{"bufferView" : 0, "byteOffset" : 0, "componentType" : 5123, "count" : 65559, "type" : "SCALAR", "max" : [54662], "min" : [0]}, {"bufferView" : 1, "byteOffset" : 0, "componentType" : 5126, "count" : 54663, "type" : "VEC3", "max" : [33.237056732177734, 67.83618927001953, 10.366930961608887], "min" : [-33.771934509277344, -1.8361890316009521, -17.525327682495117], "name" : "POSITION"}, {"bufferView" : 1, "byteOffset" : 12, "componentType" : 5126, "count" : 54663, "type" : "VEC2", "max" : [0.8971390128135681, -0.019999999552965164], "min" : [0.019999999552965164, -0.9800000190734863], "name" : "TEXCOORD_0"}, {"bufferView" : 1, "byteOffset" : 20, "componentType" : 5126, "count" : 54663, "type" : "VEC3", "max" : [0.9998895525932312, 0.9678845405578613, 1.0000028610229492], "min" : [-0.9999947547912598, -0.9799789786338806, -1.0000044107437134], "name" : "NORMAL"}], "asset" : {"generator" : "Aspose.3D 23.4.0", "version" : "2.0"}, "buffers" : [{"uri" : "data:application/octet-stream;base64,", "byteLength" : 2229016}], "bufferViews" : [{"buffer" : 0, "byteOffset" : 0, "byteLength" : 131120, "target" : 34963}, {"buffer" : 0, "byteOffset" : 131124, "byteLength" : 2097888, "byteStride" : 32, "target" : 34962}], "meshes" : [{"primitives" : [{"attributes" : {"POSITION" : 1, "TEXCOORD_0" : 2, "NORMAL" : 3}, "indices" : 0, "mode" : 4}], "name" : ""}], "nodes" : [{"mesh" : 0, "name" : "Male_Tshirt:Mesh"}], "scene" : 0, "scenes" : [{"nodes" : [0]}]}